<svg width="32.000000" height="32.000000" viewBox="0 0 32 32" fill="none" xmlns="http://www.w3.org/2000/svg" xmlns:xlink="http://www.w3.org/1999/xlink">
	<desc>
			Created with Pixso.
	</desc>
	<defs/>
	<path id="Vector" d="M17.76 15L31.63 1.13C32.12 0.64 32.12 -0.15 31.63 -0.64C31.14 -1.13 30.35 -1.13 29.86 -0.64L16 13.23L2.13 -0.64C1.64 -1.13 0.85 -1.13 0.36 -0.64C-0.13 -0.15 -0.13 0.64 0.36 1.13L14.23 15L0.36 28.86C-0.13 29.35 -0.13 30.14 0.36 30.63C0.61 30.87 0.93 31 1.25 31C1.57 31 1.88 30.87 2.13 30.63L16 16.76L29.86 30.63C30.11 30.87 30.42 31 30.75 31C31.06 31 31.38 30.87 31.63 30.63C32.12 30.14 32.12 29.35 31.63 28.86L17.76 15Z" fill="#FFFFFF" fill-opacity="1.000000" fill-rule="nonzero"/>
</svg>
