<svg width="31.000000" height="32.000000" viewBox="0 0 31 32" fill="none" xmlns="http://www.w3.org/2000/svg" xmlns:xlink="http://www.w3.org/1999/xlink">
	<desc>
			Created with Pixso.
	</desc>
	<defs/>
	<path id="Vector" d="M5.52 21.27C8.67 25.04 12.47 28.01 16.81 30.11C18.46 30.89 20.67 31.82 23.13 31.98C23.28 31.99 23.43 32 23.58 32C25.23 32 26.56 31.42 27.64 30.25C27.64 30.24 27.66 30.23 27.66 30.22C28.05 29.75 28.48 29.34 28.94 28.89C29.25 28.59 29.57 28.28 29.88 27.96C31.29 26.49 31.29 24.62 29.86 23.2L25.88 19.21C25.2 18.51 24.39 18.14 23.54 18.14C22.7 18.14 21.88 18.51 21.18 19.2L18.81 21.58C18.59 21.45 18.37 21.34 18.15 21.23C17.89 21.1 17.64 20.97 17.42 20.84C15.26 19.46 13.3 17.67 11.42 15.37C10.48 14.17 9.84 13.16 9.39 12.14C10.02 11.57 10.6 10.98 11.17 10.41C11.36 10.2 11.57 9.99 11.78 9.79C12.49 9.07 12.88 8.24 12.88 7.4C12.88 6.56 12.5 5.73 11.78 5.01L9.8 3.04C9.57 2.81 9.35 2.58 9.12 2.35C8.69 1.9 8.23 1.43 7.78 1.02C7.09 0.35 6.29 0 5.44 0C4.6 0 3.79 0.35 3.08 1.02L0.6 3.5C-0.3 4.4 -0.81 5.5 -0.92 6.77C-1.04 8.35 -0.75 10.03 0.01 12.07C1.17 15.22 2.92 18.14 5.52 21.27ZM0.7 6.9C0.78 6.02 1.12 5.29 1.76 4.65L4.22 2.18C4.61 1.81 5.03 1.62 5.44 1.62C5.85 1.62 6.26 1.81 6.64 2.2C7.08 2.61 7.5 3.04 7.95 3.5C8.17 3.73 8.41 3.96 8.64 4.2L10.61 6.17C11.03 6.59 11.24 7 11.24 7.41C11.24 7.83 11.03 8.24 10.61 8.65C10.41 8.86 10.2 9.07 10 9.28C9.38 9.9 8.8 10.49 8.17 11.06C8.15 11.07 8.15 11.08 8.13 11.09C7.58 11.64 7.67 12.16 7.8 12.56C7.81 12.58 7.82 12.59 7.82 12.61C8.33 13.84 9.04 15.01 10.15 16.4C12.14 18.85 14.24 20.76 16.54 22.22C16.83 22.41 17.13 22.55 17.42 22.7C17.68 22.83 17.93 22.96 18.15 23.1C18.17 23.11 18.19 23.12 18.22 23.14C18.44 23.25 18.65 23.3 18.86 23.3C19.39 23.3 19.74 22.96 19.85 22.85L22.33 20.37C22.72 19.99 23.13 19.78 23.54 19.78C24.05 19.78 24.46 20.09 24.72 20.37L28.72 24.36C29.51 25.16 29.51 26.02 28.7 26.86C28.42 27.16 28.13 27.45 27.81 27.74C27.35 28.2 26.87 28.66 26.43 29.18C25.67 30.01 24.76 30.39 23.58 30.39C23.47 30.39 23.35 30.38 23.24 30.38C21.06 30.24 19.04 29.39 17.52 28.67C13.4 26.67 9.78 23.84 6.78 20.25C4.3 17.27 2.64 14.5 1.54 11.53C0.85 9.7 0.6 8.24 0.7 6.9Z" fill="#FFFFFF" fill-opacity="1.000000" fill-rule="nonzero"/>
</svg>
