<svg width="32" height="32" fill="none" xmlns="http://www.w3.org/2000/svg"><defs><clipPath id="clip106_2273"><path id="001-placeholder" fill="#fff" fill-opacity="0" d="M0 0h32v32H0z"/></clipPath></defs><path id="001-placeholder" fill="#FFF" fill-opacity="0" d="M0 0h32v32H0z"/><g clip-path="url('#clip106_2273')" fill="#FFF" fill-opacity="1" fill-rule="nonzero"><path id="Vector" d="M16 0C9.79 0 4.75 5.04 4.75 11.25c0 2.09.58 4.14 1.67 5.91l8.93 14.39c.18.28.48.45.8.45h.01c.33-.01.63-.18.8-.46l8.7-14.53c1.04-1.74 1.59-3.73 1.59-5.76C27.25 5.04 22.2 0 16 0Zm8.05 16.05-7.91 13.21-8.12-13.09a9.287 9.287 0 0 1-1.41-4.92c0-5.17 4.22-9.39 9.39-9.39 5.16 0 9.38 4.22 9.38 9.39 0 1.69-.47 3.35-1.33 4.8Z"/><path id="Vector" d="M16 5.62a5.63 5.63 0 0 0-5.63 5.63c0 3.08 2.48 5.62 5.63 5.62 3.18 0 5.62-2.58 5.62-5.62 0-3.11-2.52-5.63-5.62-5.63Zm0 9.39a3.77 3.77 0 0 1-3.77-3.76c0-2.07 1.7-3.77 3.77-3.77 2.06 0 3.75 1.7 3.75 3.77 0 2.04-1.64 3.76-3.75 3.76Z"/></g></svg>