<svg width="32.000000" height="25.000000" viewBox="0 0 32 25" fill="none" xmlns="http://www.w3.org/2000/svg" xmlns:xlink="http://www.w3.org/1999/xlink">
	<desc>
			Created with Pixso.
	</desc>
	<defs></defs>
	<path id="Vector" d="M29.18 -0.19L2.81 -0.19C1.26 -0.19 0 1.07 0 2.62L0 21.37C0 22.92 1.25 24.18 2.81 24.18L29.18 24.18C30.73 24.18 32 22.92 32 21.37L32 2.62C32 1.07 30.74 -0.19 29.18 -0.19ZM28.79 1.68L16.05 14.42L3.2 1.68L28.79 1.68ZM1.87 20.98L1.87 3L10.9 11.95L1.87 20.98ZM3.2 22.31L12.23 13.27L15.4 16.41C15.76 16.77 16.36 16.77 16.72 16.41L19.81 13.32L28.79 22.31L3.2 22.31ZM30.12 20.98L21.13 12L30.12 3.01L30.12 20.98Z" fill="#FFFFFF" fill-opacity="1.000000" fill-rule="nonzero"></path>
</svg>
