<svg width="31" height="32" fill="none" xmlns="http://www.w3.org/2000/svg"><path id="Vector" d="M5.52 21.27c3.15 3.77 6.95 6.74 11.29 8.84 1.65.78 3.86 1.71 6.32 1.87.15.01.3.02.45.02 1.65 0 2.98-.58 4.06-1.75 0-.01.02-.02.02-.03.39-.47.82-.88 1.28-1.33.31-.3.63-.61.94-.93 1.41-1.47 1.41-3.34-.02-4.76l-3.98-3.99c-.68-.7-1.49-1.07-2.34-1.07-.84 0-1.66.37-2.36 1.06l-2.37 2.38c-.22-.13-.44-.24-.66-.35-.26-.13-.51-.26-.73-.39-2.16-1.38-4.12-3.17-6-5.47-.94-1.2-1.58-2.21-2.03-3.23.63-.57 1.21-1.16 1.78-1.73.19-.21.4-.42.61-.62.71-.72 1.1-1.55 1.1-2.39 0-.84-.38-1.67-1.1-2.39L9.8 3.04c-.23-.23-.45-.46-.68-.69-.43-.45-.89-.92-1.34-1.33C7.09.35 6.29 0 5.44 0 4.6 0 3.79.35 3.08 1.02L.6 3.5c-.9.9-1.41 2-1.52 3.27-.12 1.58.17 3.26.93 5.3 1.16 3.15 2.91 6.07 5.51 9.2ZM.7 6.9c.08-.88.42-1.61 1.06-2.25l2.46-2.47c.39-.37.81-.56 1.22-.56.41 0 .82.19 1.2.58.44.41.86.84 1.31 1.3.22.23.46.46.69.7l1.97 1.97c.42.42.63.83.63 1.24 0 .42-.21.83-.63 1.24-.2.21-.41.42-.61.63-.62.62-1.2 1.21-1.83 1.78-.02.01-.02.02-.04.03-.55.55-.46 1.07-.33 1.47.01.02.02.03.02.05.51 1.23 1.22 2.4 2.33 3.79 1.99 2.45 4.09 4.36 6.39 5.82.29.19.59.33.88.48.26.13.51.26.73.4a1.408 1.408 0 0 0 .71.2c.53 0 .88-.34.99-.45l2.48-2.48c.39-.38.8-.59 1.21-.59.51 0 .92.31 1.18.59l4 3.99c.79.8.79 1.66-.02 2.5-.28.3-.57.59-.89.88-.46.46-.94.92-1.38 1.44-.76.83-1.67 1.21-2.85 1.21-.11 0-.23-.01-.34-.01-2.18-.14-4.2-.99-5.72-1.71-4.12-2-7.74-4.83-10.74-8.42-2.48-2.98-4.14-5.75-5.24-8.72C.85 9.7.6 8.24.7 6.9Z" fill="#FFF" fill-opacity="1" fill-rule="nonzero"/></svg>